<svg viewBox="0 0 24 24" xmlns="http://www.w3.org/2000/svg"><g id="Layer_2" data-name="Layer 2"><path d="m11.71289 23h-6.8042a1.99974 1.99974 0 0 1 -1.69922-3.05469l.45948-.74072a11.09925 11.09925 0 0 1 -2.51563-9.06787 10.93321 10.93321 0 0 1 8.56592-8.90672 11.01175 11.01175 0 0 1 13.26176 11.42674 11.15718 11.15718 0 0 1 -11.26811 10.34326zm.27441-19.99756a9.45323 9.45323 0 0 0 -1.87255.18848 8.92067 8.92067 0 0 0 -6.9878 7.271 9.05426 9.05426 0 0 0 2.07373 7.43508 2.0114 2.0114 0 0 1 .16748 2.3628l-.45947.7402h6.8042a9.15519 9.15519 0 0 0 9.271-8.45947 8.99542 8.99542 0 0 0 -8.99659-9.53809z"/><path d="m13 16.875h-1a1 1 0 0 1 -1-1v-4a1 1 0 0 1 0-2h1a1 1 0 0 1 1 1v4a1 1 0 0 1 0 2z"/><circle cx="12" cy="7.375" r="1.25"/></g></svg>