<svg id="Layer_1" enable-background="new 0 0 66 66" height="512" viewBox="0 0 66 66" width="512" xmlns="http://www.w3.org/2000/svg"><g><g><path d="m26.6 36c-.1 0-.3 0-.4-.1-.4-.2-.6-.5-.6-.9v-13.4c0-.6.4-1 1-1s1 .4 1 1v11.1l4.7-4.4c.4-.4 1-.4 1.3 0l4.7 4.3v-11c0-.6.4-1 1-1s1 .4 1 1v13.3c0 .4-.2.8-.6.9-.4.2-.8.1-1.1-.2l-5.6-5.1-5.7 5.3c-.2.1-.5.2-.7.2z"/></g><g><path d="m33 24.6c-6.5 0-11.8-5.3-11.8-11.8s5.3-11.8 11.8-11.8 11.8 5.3 11.8 11.8-5.3 11.8-11.8 11.8zm0-21.6c-5.4 0-9.8 4.4-9.8 9.8s4.4 9.8 9.8 9.8 9.8-4.4 9.8-9.8-4.4-9.8-9.8-9.8z"/></g><g><path d="m52.1 55.1c-.6 0-1-.5-1-1 .1-2.1.8-4.1 2.1-6.1l7.2-10.8c.8-1.1 1.1-2.4.9-3.9l-3.3-22.8c-.1-.5-.4-1-.8-1.3-.3-.2-.8-.3-1.3-.3-.9.1-1.5.9-1.5 1.8l.1 15.7c0 .6-.4 1-1 1-.5 0-1-.4-1-1l-.1-15.7c0-1.9 1.4-3.5 3.3-3.8.9-.1 1.8.1 2.6.5.9.5 1.6 1.6 1.8 2.7l3.2 22.9c.3 2-.2 3.9-1.3 5.4l-7.2 10.7c-1.1 1.6-1.6 3.4-1.7 5.1 0 .5-.5.9-1 .9z"/></g><g><path d="m40.9 51.2c-.1 0-.1 0-.2 0-.5-.1-.9-.6-.8-1.1l1.8-10.9c.1-1.1.4-2.3.8-3.8l2-5.1c1.1-2.9 3.8-4.7 6.9-4.7 1.1 0 1.9.2 2.7.5.5.2.7.8.5 1.3l-4.1 10.9c-.2.5-.8.8-1.3.6s-.8-.8-.6-1.3l3.7-9.9c-.3 0-.6-.1-1-.1-2.3 0-4.2 1.3-5.1 3.5l-2 5.1c-.4 1.2-.7 2.3-.7 3.3l-1.8 11c.1.4-.3.7-.8.7z"/></g><g><path d="m51.3 65c-.1 0-.2 0-.3-.1l-15.7-5.6c-.5-.2-.8-.8-.6-1.3l3.2-9c.1-.2.3-.5.5-.6s.5-.1.8 0l15.6 5.6c.2.1.5.3.6.5s.1.5 0 .8l-3.2 9c-.1.4-.5.7-.9.7zm-14.5-7.2 13.9 4.9 2.5-7.2-13.9-4.9z"/></g><g><path d="m13.7 55.1c-.5 0-1-.4-1-1-.1-1.7-.7-3.4-1.7-5.1l-7.2-10.7c-1-1.4-1.4-3.3-1.2-5.3l3.4-22.7c.1-1.1.8-2.2 1.8-2.7.8-.6 1.7-.7 2.4-.7h.2c1.9.4 3.2 2 3.2 3.9l-.1 15.7c0 .6-.5 1-1 1-.6 0-1-.5-1-1l.1-15.7c0-.9-.6-1.7-1.5-1.9-.6 0-.9.1-1.2.3-.5.3-.8.8-.9 1.3l-3.4 22.7c-.2 1.4.1 2.9.8 3.9l7.2 10.8c1.3 2 2 4 2.1 6.1 0 .6-.4 1.1-1 1.1z"/></g><g><path d="m25 51.2c-.5 0-.9-.3-1-.8l-1.8-10.9c-.1-1.1-.3-2.2-.8-3.4l-1.9-5.1c-.8-2.1-2.8-3.4-5.1-3.4-.4 0-.7 0-1 .1l3.6 9.9c.2.5-.1 1.1-.6 1.3s-1.1-.1-1.3-.6l-4-10.9c-.2-.5.1-1.1.5-1.3.8-.3 1.6-.5 2.7-.5 3.1 0 5.8 1.9 6.9 4.7l1.9 5.1c.5 1.5.8 2.7.9 3.9l2 10.7c.1.5-.3 1.1-.8 1.1-.1.1-.1.1-.2.1z"/></g><g><path d="m14.5 65c-.4 0-.8-.3-.9-.7l-3.2-9.1c-.1-.2-.1-.5 0-.8.1-.2.3-.4.6-.5l15.8-5.5c.5-.2 1.1.1 1.3.6l3.2 9.1c.1.2.1.5 0 .8-.1.2-.3.4-.6.5l-15.8 5.5c-.1.1-.2.1-.4.1zm-1.9-9.5 2.5 7.2 13.9-4.8-2.5-7.2z"/></g><g><path d="m37.3 19.5c-.2 0-.3 0-.5-.1l-3.8-2-3.8 2c-.3.2-.7.1-1-.1s-.5-.6-.4-1l.7-4.3-3-2.9c-.3-.3-.4-.7-.3-1 .1-.4.4-.6.8-.7l4.3-.6 1.9-3.9c.2-.3.5-.6.9-.6.4 0 .7.2.9.6l1.9 3.9 4.1.6c.4.1.7.3.8.7s0 .8-.3 1l-3 2.9.7 4.3c.1.4-.1.7-.4 1-.1.1-.3.2-.5.2zm-4.3-4.2c.2 0 .3 0 .5.1l2.5 1.3-.5-2.8c-.1-.3.1-.7.3-.9l1.9-1.9-2.7-.4c-.3 0-.6-.3-.8-.6l-1.2-2.5-1.2 2.5c-.1.3-.4.5-.8.6l-2.8.4 1.9 1.9c.2.2.3.6.3.9l-.4 2.8 2.5-1.3c.2-.1.3-.1.5-.1z"/></g><g><g><g><path d="m49.3 13.8h-2.1c-.6 0-1-.4-1-1s.4-1 1-1h2.1c.6 0 1 .4 1 1s-.4 1-1 1z"/></g><g><path d="m49.3 20.3c-.2 0-.3 0-.5-.1l-2.1-1.1c-.5-.3-.7-.9-.4-1.3.3-.5.9-.7 1.3-.4l2.1 1.1c.5.3.7.9.4 1.3-.1.3-.4.5-.8.5z"/></g><g><path d="m47.2 8.4c-.4 0-.7-.2-.9-.6-.2-.5 0-1.1.5-1.3l2.1-1c.5-.2 1.1 0 1.3.5s0 1.1-.5 1.3l-2.1 1c-.1.1-.3.1-.4.1z"/></g></g><g><g><path d="m18.8 13.8h-2.1c-.6 0-1-.4-1-1s.4-1 1-1h2.1c.6 0 1 .4 1 1s-.4 1-1 1z"/></g><g><path d="m16.7 20.3c-.4 0-.7-.2-.9-.5-.3-.5-.1-1.1.4-1.3l2.1-1.1c.5-.3 1.1-.1 1.3.4.3.5.1 1.1-.4 1.3l-2.1 1.1c-.1.1-.2.1-.4.1z"/></g><g><path d="m18.8 8.4c-.1 0-.3 0-.4-.1l-2.1-1c-.5-.2-.7-.8-.5-1.3s.8-.7 1.3-.5l2.1 1c.5.2.7.8.5 1.3-.2.4-.5.6-.9.6z"/></g></g></g></g><g><g><path d="m26.6 36c-.1 0-.3 0-.4-.1-.4-.2-.6-.5-.6-.9v-13.4c0-.6.4-1 1-1s1 .4 1 1v11.1l4.7-4.4c.4-.4 1-.4 1.3 0l4.7 4.3v-11c0-.6.4-1 1-1s1 .4 1 1v13.3c0 .4-.2.8-.6.9-.4.2-.8.1-1.1-.2l-5.6-5.1-5.7 5.3c-.2.1-.5.2-.7.2z"/></g><g><path d="m33 24.6c-6.5 0-11.8-5.3-11.8-11.8s5.3-11.8 11.8-11.8 11.8 5.3 11.8 11.8-5.3 11.8-11.8 11.8zm0-21.6c-5.4 0-9.8 4.4-9.8 9.8s4.4 9.8 9.8 9.8 9.8-4.4 9.8-9.8-4.4-9.8-9.8-9.8z"/></g><g><path d="m52.1 55.1c-.6 0-1-.5-1-1 .1-2.1.8-4.1 2.1-6.1l7.2-10.8c.8-1.1 1.1-2.4.9-3.9l-3.3-22.8c-.1-.5-.4-1-.8-1.3-.3-.2-.8-.3-1.3-.3-.9.1-1.5.9-1.5 1.8l.1 15.7c0 .6-.4 1-1 1-.5 0-1-.4-1-1l-.1-15.7c0-1.9 1.4-3.5 3.3-3.8.9-.1 1.8.1 2.6.5.9.5 1.6 1.6 1.8 2.7l3.2 22.9c.3 2-.2 3.9-1.3 5.4l-7.2 10.7c-1.1 1.6-1.6 3.4-1.7 5.1 0 .5-.5.9-1 .9z"/></g><g><path d="m40.9 51.2c-.1 0-.1 0-.2 0-.5-.1-.9-.6-.8-1.1l1.8-10.9c.1-1.1.4-2.3.8-3.8l2-5.1c1.1-2.9 3.8-4.7 6.9-4.7 1.1 0 1.9.2 2.7.5.5.2.7.8.5 1.3l-4.1 10.9c-.2.5-.8.8-1.3.6s-.8-.8-.6-1.3l3.7-9.9c-.3 0-.6-.1-1-.1-2.3 0-4.2 1.3-5.1 3.5l-2 5.1c-.4 1.2-.7 2.3-.7 3.3l-1.8 11c.1.4-.3.7-.8.7z"/></g><g><path d="m51.3 65c-.1 0-.2 0-.3-.1l-15.7-5.6c-.5-.2-.8-.8-.6-1.3l3.2-9c.1-.2.3-.5.5-.6s.5-.1.8 0l15.6 5.6c.2.1.5.3.6.5s.1.5 0 .8l-3.2 9c-.1.4-.5.7-.9.7zm-14.5-7.2 13.9 4.9 2.5-7.2-13.9-4.9z"/></g><g><path d="m13.7 55.1c-.5 0-1-.4-1-1-.1-1.7-.7-3.4-1.7-5.1l-7.2-10.7c-1-1.4-1.4-3.3-1.2-5.3l3.4-22.7c.1-1.1.8-2.2 1.8-2.7.8-.6 1.7-.7 2.4-.7h.2c1.9.4 3.2 2 3.2 3.9l-.1 15.7c0 .6-.5 1-1 1-.6 0-1-.5-1-1l.1-15.7c0-.9-.6-1.7-1.5-1.9-.6 0-.9.1-1.2.3-.5.3-.8.8-.9 1.3l-3.4 22.7c-.2 1.4.1 2.9.8 3.9l7.2 10.8c1.3 2 2 4 2.1 6.1 0 .6-.4 1.1-1 1.1z"/></g><g><path d="m25 51.2c-.5 0-.9-.3-1-.8l-1.8-10.9c-.1-1.1-.3-2.2-.8-3.4l-1.9-5.1c-.8-2.1-2.8-3.4-5.1-3.4-.4 0-.7 0-1 .1l3.6 9.9c.2.5-.1 1.1-.6 1.3s-1.1-.1-1.3-.6l-4-10.9c-.2-.5.1-1.1.5-1.3.8-.3 1.6-.5 2.7-.5 3.1 0 5.8 1.9 6.9 4.7l1.9 5.1c.5 1.5.8 2.7.9 3.9l2 10.7c.1.5-.3 1.1-.8 1.1-.1.1-.1.1-.2.1z"/></g><g><path d="m14.5 65c-.4 0-.8-.3-.9-.7l-3.2-9.1c-.1-.2-.1-.5 0-.8.1-.2.3-.4.6-.5l15.8-5.5c.5-.2 1.1.1 1.3.6l3.2 9.1c.1.2.1.5 0 .8-.1.2-.3.4-.6.5l-15.8 5.5c-.1.1-.2.1-.4.1zm-1.9-9.5 2.5 7.2 13.9-4.8-2.5-7.2z"/></g><g><path d="m37.3 19.5c-.2 0-.3 0-.5-.1l-3.8-2-3.8 2c-.3.2-.7.1-1-.1s-.5-.6-.4-1l.7-4.3-3-2.9c-.3-.3-.4-.7-.3-1 .1-.4.4-.6.8-.7l4.3-.6 1.9-3.9c.2-.3.5-.6.9-.6.4 0 .7.2.9.6l1.9 3.9 4.1.6c.4.1.7.3.8.7s0 .8-.3 1l-3 2.9.7 4.3c.1.4-.1.7-.4 1-.1.1-.3.2-.5.2zm-4.3-4.2c.2 0 .3 0 .5.1l2.5 1.3-.5-2.8c-.1-.3.1-.7.3-.9l1.9-1.9-2.7-.4c-.3 0-.6-.3-.8-.6l-1.2-2.5-1.2 2.5c-.1.3-.4.5-.8.6l-2.8.4 1.9 1.9c.2.2.3.6.3.9l-.4 2.8 2.5-1.3c.2-.1.3-.1.5-.1z"/></g><g><g><g><path d="m49.3 13.8h-2.1c-.6 0-1-.4-1-1s.4-1 1-1h2.1c.6 0 1 .4 1 1s-.4 1-1 1z"/></g><g><path d="m49.3 20.3c-.2 0-.3 0-.5-.1l-2.1-1.1c-.5-.3-.7-.9-.4-1.3.3-.5.9-.7 1.3-.4l2.1 1.1c.5.3.7.9.4 1.3-.1.3-.4.5-.8.5z"/></g><g><path d="m47.2 8.4c-.4 0-.7-.2-.9-.6-.2-.5 0-1.1.5-1.3l2.1-1c.5-.2 1.1 0 1.3.5s0 1.1-.5 1.3l-2.1 1c-.1.1-.3.1-.4.1z"/></g></g><g><g><path d="m18.8 13.8h-2.1c-.6 0-1-.4-1-1s.4-1 1-1h2.1c.6 0 1 .4 1 1s-.4 1-1 1z"/></g><g><path d="m16.7 20.3c-.4 0-.7-.2-.9-.5-.3-.5-.1-1.1.4-1.3l2.1-1.1c.5-.3 1.1-.1 1.3.4.3.5.1 1.1-.4 1.3l-2.1 1.1c-.1.1-.2.1-.4.1z"/></g><g><path d="m18.8 8.4c-.1 0-.3 0-.4-.1l-2.1-1c-.5-.2-.7-.8-.5-1.3s.8-.7 1.3-.5l2.1 1c.5.2.7.8.5 1.3-.2.4-.5.6-.9.6z"/></g></g></g></g></svg>