<svg width="186" height="186" viewBox="0 0 186 186" fill="none" xmlns="http://www.w3.org/2000/svg">
<path d="M165.625 72.875C165.625 53.5473 157.947 35.0113 144.28 21.3446C130.614 7.67788 112.078 0 92.75 0C73.4223 0 54.8863 7.67788 41.2196 21.3446C27.5529 35.0113 19.875 53.5473 19.875 72.875C14.6038 72.875 9.54854 74.969 5.82125 78.6963C2.09397 82.4235 0 87.4788 0 92.75V119.25C0 124.521 2.09397 129.576 5.82125 133.304C9.54854 137.031 14.6038 139.125 19.875 139.125V145.75C19.875 152.778 22.667 159.519 27.6367 164.488C32.6064 169.458 39.3468 172.25 46.375 172.25H79.5V159H46.375C42.8609 159 39.4907 157.604 37.0058 155.119C34.521 152.634 33.125 149.264 33.125 145.75V139.125C38.3962 139.125 43.4515 137.031 47.1787 133.304C50.906 129.576 53 124.521 53 119.25V92.75C53 87.4788 50.906 82.4235 47.1787 78.6963C43.4515 74.969 38.3962 72.875 33.125 72.875C33.125 57.0615 39.4069 41.8956 50.5888 30.7138C61.7706 19.5319 76.9365 13.25 92.75 13.25C108.564 13.25 123.729 19.5319 134.911 30.7138C146.093 41.8956 152.375 57.0615 152.375 72.875C147.104 72.875 142.049 74.969 138.321 78.6963C134.594 82.4235 132.5 87.4788 132.5 92.75V119.25C132.5 124.521 134.594 129.576 138.321 133.304C142.049 137.031 147.104 139.125 152.375 139.125H165.625C170.896 139.125 175.951 137.031 179.679 133.304C183.406 129.576 185.5 124.521 185.5 119.25V92.75C185.5 87.4788 183.406 82.4235 179.679 78.6963C175.951 74.969 170.896 72.875 165.625 72.875ZM39.75 92.75V119.25C39.75 121.007 39.052 122.692 37.8096 123.935C36.5672 125.177 34.8821 125.875 33.125 125.875H19.875C18.1179 125.875 16.4328 125.177 15.1904 123.935C13.948 122.692 13.25 121.007 13.25 119.25V92.75C13.25 90.9929 13.948 89.3078 15.1904 88.0654C16.4328 86.823 18.1179 86.125 19.875 86.125H33.125C34.8821 86.125 36.5672 86.823 37.8096 88.0654C39.052 89.3078 39.75 90.9929 39.75 92.75ZM172.25 119.25C172.25 121.007 171.552 122.692 170.31 123.935C169.067 125.177 167.382 125.875 165.625 125.875H152.375C150.618 125.875 148.933 125.177 147.69 123.935C146.448 122.692 145.75 121.007 145.75 119.25V92.75C145.75 90.9929 146.448 89.3078 147.69 88.0654C148.933 86.823 150.618 86.125 152.375 86.125H165.625C167.382 86.125 169.067 86.823 170.31 88.0654C171.552 89.3078 172.25 90.9929 172.25 92.75V119.25Z" fill="black"/>
<path d="M106 185.5H79.5C75.9859 185.5 72.6157 184.104 70.1308 181.619C67.646 179.134 66.25 175.764 66.25 172.25V159C66.25 155.486 67.646 152.116 70.1308 149.631C72.6157 147.146 75.9859 145.75 79.5 145.75H106C109.514 145.75 112.884 147.146 115.369 149.631C117.854 152.116 119.25 155.486 119.25 159V172.25C119.25 175.764 117.854 179.134 115.369 181.619C112.884 184.104 109.514 185.5 106 185.5ZM79.5 159V172.25H106V159H79.5Z" fill="black"/>
</svg>
