<svg width="200" height="200" viewBox="0 0 200 200" fill="none" xmlns="http://www.w3.org/2000/svg">
<path d="M99.9966 153.195C103.678 153.195 106.663 150.21 106.663 146.528C106.663 142.846 103.678 139.862 99.9966 139.862C96.3148 139.862 93.3301 142.846 93.3301 146.528C93.3301 150.21 96.3148 153.195 99.9966 153.195Z" fill="black"/>
<path d="M99.9977 110.142C96.9244 110.142 93.8578 109.449 91.0579 108.049L51.059 88.0497C47.7299 86.3984 44.9299 83.8475 42.9763 80.6862C41.0228 77.525 39.9938 73.8797 40.006 70.1635V20.0182C40.006 13.0384 43.5525 6.67856 49.4924 3.00533C52.388 1.20107 55.6994 0.172937 59.1077 0.0199787C62.516 -0.13298 65.9063 0.594393 68.9519 2.13202L97.0178 16.165C97.9439 16.6284 98.9653 16.8697 100.001 16.8697C101.037 16.8697 102.058 16.6284 102.984 16.165L131.05 2.13202C134.096 0.596915 137.486 -0.129039 140.894 0.0238974C144.302 0.176834 147.613 1.20352 150.51 3.00533C153.419 4.78786 155.82 7.28952 157.481 10.2693C159.143 13.2491 160.009 16.6065 159.996 20.0182V70.1568C160.008 73.873 158.979 77.5183 157.026 80.6796C155.072 83.8408 152.272 86.3917 148.943 88.043L108.951 108.042C106.151 109.442 103.078 110.136 100.004 110.136L99.9977 110.142ZM57.0255 76.1167L97.0178 96.1161C98.871 97.0428 101.104 97.0494 102.991 96.1161L142.977 76.1167C144.087 75.5671 145.02 74.7174 145.672 73.664C146.324 72.6105 146.667 71.3955 146.663 70.1568V20.0182C146.671 18.8795 146.383 17.7583 145.828 16.764C145.273 15.7697 144.47 14.9363 143.496 14.345C142.533 13.7385 141.428 13.3932 140.291 13.3429C139.154 13.2926 138.023 13.5392 137.01 14.0584L108.944 28.0913C103.344 30.8912 96.6511 30.8912 91.0513 28.0913L62.9853 14.0584C61.9715 13.5418 60.8411 13.2967 59.7043 13.3469C58.5676 13.3971 57.4632 13.741 56.4989 14.345C55.5248 14.9353 54.7207 15.7685 54.1656 16.763C53.6105 17.7576 53.3233 18.8793 53.3323 20.0182V70.1568C53.3323 72.6968 54.7522 74.9767 57.0255 76.1167Z" fill="black"/>
<path d="M93.3301 23.5381H106.663V103.483H93.3301V23.5381Z" fill="black"/>
<path d="M166.662 173.334H33.3324C28.9552 173.334 24.6207 172.472 20.5767 170.797C16.5326 169.122 12.858 166.667 9.76284 163.571C3.5118 157.32 0 148.842 0 140.002V60.0039C0 50.4309 4.04656 41.5311 10.933 35.2979C11.6899 34.6013 12.5966 34.0877 13.5833 33.7968C14.57 33.5059 15.6102 33.4454 16.624 33.6199C17.6378 33.7944 18.5979 34.1994 19.4305 34.8035C20.263 35.4077 20.9458 36.1949 21.4261 37.1046C22.8794 39.8978 22.0461 43.1844 19.7328 45.3243C17.71 47.1965 16.097 49.4674 14.9956 51.9939C13.8941 54.5204 13.328 57.2478 13.333 60.0039V140.002C13.333 145.306 15.4401 150.393 19.1907 154.144C22.9413 157.894 28.0282 160.001 33.3324 160.001H166.662C171.966 160.001 177.053 157.894 180.804 154.144C184.555 150.393 186.662 145.306 186.662 140.002V60.0039C186.667 57.2471 186.1 54.5191 184.998 51.9924C183.895 49.4656 182.28 47.1951 180.255 45.3243C177.942 43.1844 177.102 39.8978 178.555 37.1046C179.035 36.1949 179.718 35.4077 180.551 34.8035C181.383 34.1994 182.343 33.7944 183.357 33.6199C184.371 33.4454 185.411 33.5059 186.398 33.7968C187.385 34.0877 188.291 34.6013 189.048 35.2979C192.5 38.4208 195.257 42.2336 197.141 46.4895C199.026 50.7453 199.995 55.3495 199.988 60.0039V140.002C199.988 148.842 196.476 157.32 190.225 163.571C183.974 169.822 175.502 173.334 166.662 173.334Z" fill="black"/>
<path d="M144.117 200H55.8789L75.885 160.001H124.11L144.117 200ZM77.4517 186.667H122.544L115.871 173.334H84.1248L77.4517 186.667Z" fill="black"/>
<path d="M159.995 186.667H39.9985C36.3167 186.667 33.332 189.652 33.332 193.333C33.332 197.015 36.3167 200 39.9985 200H159.995C163.677 200 166.662 197.015 166.662 193.333C166.662 189.652 163.677 186.667 159.995 186.667Z" fill="black"/>
<path d="M6.66602 119.729H193.328V133.062H6.66602V119.729Z" fill="black"/>
</svg>
