<svg width="200" height="200" viewBox="0 0 200 200" fill="none" xmlns="http://www.w3.org/2000/svg">
<path d="M77.0826 66.667H14.5828C6.54142 66.667 0 60.1255 0 52.0827V14.5828C0 6.54142 6.54142 0 14.5828 0H77.0826C85.1255 0 91.6669 6.54142 91.6669 14.5828V52.0827C91.6669 60.1255 85.1255 66.667 77.0826 66.667ZM14.5828 12.5C13.4338 12.5 12.5 13.4338 12.5 14.5828V52.0827C12.5 53.2332 13.4338 54.167 14.5828 54.167H77.0826C78.2331 54.167 79.1669 53.2332 79.1669 52.0827V14.5828C79.1669 13.4338 78.2331 12.5 77.0826 12.5H14.5828Z" fill="black"/>
<path d="M77.0826 200H14.5828C6.54142 200 0 193.459 0 185.418V97.9178C0 89.8749 6.54142 83.3335 14.5828 83.3335H77.0826C85.1255 83.3335 91.6669 89.8749 91.6669 97.9178V185.418C91.6669 193.459 85.1255 200 77.0826 200ZM14.5828 95.8335C13.4338 95.8335 12.5 96.7673 12.5 97.9178V185.418C12.5 186.567 13.4338 187.5 14.5828 187.5H77.0826C78.2331 187.5 79.1669 186.567 79.1669 185.418V97.9178C79.1669 96.7673 78.2331 95.8335 77.0826 95.8335H14.5828Z" fill="black"/>
<path d="M185.424 199.999H122.924C114.881 199.999 108.34 193.458 108.34 185.417V147.917C108.34 139.874 114.881 133.333 122.924 133.333H185.424C193.465 133.333 200.007 139.874 200.007 147.917V185.417C200.007 193.458 193.465 199.999 185.424 199.999ZM122.924 145.832C121.774 145.832 120.84 146.766 120.84 147.917V185.417C120.84 186.566 121.774 187.5 122.924 187.5H185.424C186.573 187.5 187.507 186.566 187.507 185.417V147.917C187.507 146.766 186.573 145.832 185.424 145.832H122.924Z" fill="black"/>
<path d="M185.424 116.667H122.924C114.881 116.667 108.34 110.125 108.34 102.083V14.5828C108.34 6.54142 114.881 0 122.924 0H185.424C193.465 0 200.007 6.54142 200.007 14.5828V102.083C200.007 110.125 193.465 116.667 185.424 116.667ZM122.924 12.5C121.774 12.5 120.84 13.4338 120.84 14.5828V102.083C120.84 103.233 121.774 104.167 122.924 104.167H185.424C186.573 104.167 187.507 103.233 187.507 102.083V14.5828C187.507 13.4338 186.573 12.5 185.424 12.5H122.924Z" fill="black"/>
</svg>
