<svg width="248" height="204" viewBox="0 0 248 204" fill="none" xmlns="http://www.w3.org/2000/svg">
<path d="M231.365 141.032H217.819V130.514C217.819 122.602 211.396 116.166 203.5 116.166H127.562V62.9679H194.797C198.512 62.9638 202.074 61.4862 204.7 58.8594C207.327 56.2326 208.805 52.671 208.809 48.9561V16.0117C208.805 12.2969 207.327 8.7353 204.7 6.10848C202.074 3.48167 198.512 2.00411 194.797 2H52.5536C48.8387 2.00411 45.2772 3.48167 42.6504 6.10848C40.0235 8.7353 38.546 12.2969 38.5419 16.0117V48.9561C38.546 52.671 40.0235 56.2326 42.6504 58.8594C45.2772 61.4862 48.8387 62.9638 52.5536 62.9679H119.789V116.166H43.8513C35.9545 116.166 29.5314 122.602 29.5314 130.514V141.032H15.9858C8.2729 141.032 2 147.318 2 155.044V187.988C2 195.714 8.27549 202 15.9858 202H49.9144C53.6293 201.996 57.1909 200.518 59.8177 197.892C62.4445 195.265 63.922 191.703 63.9262 187.988V155.044C63.922 151.329 62.4445 147.767 59.8177 145.141C57.1909 142.514 53.6293 141.036 49.9144 141.032H37.3039V130.514C37.3039 126.888 40.2435 123.936 43.8539 123.936H119.792V141.032H106.712C102.998 141.036 99.436 142.514 96.8092 145.141C94.1824 147.767 92.7048 151.329 92.7007 155.044V187.988C92.7048 191.703 94.1824 195.265 96.8092 197.892C99.436 200.518 102.998 201.996 106.712 202H140.641C144.356 201.996 147.917 200.518 150.544 197.892C153.171 195.265 154.649 191.703 154.653 187.988V155.044C154.649 151.329 153.171 147.767 150.544 145.141C147.917 142.514 144.356 141.036 140.641 141.032H127.562V123.936H203.5C205.24 123.941 206.907 124.637 208.135 125.87C209.363 127.104 210.052 128.774 210.05 130.514V141.032H197.439C193.724 141.036 190.163 142.514 187.536 145.141C184.909 147.767 183.431 151.329 183.427 155.044V187.988C183.431 191.703 184.909 195.265 187.536 197.892C190.163 200.518 193.724 201.996 197.439 202H231.368C239.081 202 245.353 195.714 245.353 187.988V155.044C245.353 147.318 239.075 141.032 231.365 141.032ZM46.3118 48.9587V16.0143C46.3138 14.3595 46.9721 12.7731 48.1422 11.603C49.3124 10.4328 50.8988 9.77455 52.5536 9.7725H194.795C196.449 9.77455 198.036 10.4328 199.206 11.603C200.376 12.7731 201.034 14.3595 201.037 16.0143V48.9587C201.034 50.6135 200.376 52.2 199.206 53.3701C198.036 54.5402 196.449 55.1985 194.795 55.2006H52.5536C50.8988 55.1985 49.3124 54.5402 48.1422 53.3701C46.9721 52.2 46.3138 50.6135 46.3118 48.9587ZM56.1537 155.046V187.991C56.1516 189.646 55.4933 191.232 54.3232 192.402C53.1531 193.572 51.5666 194.231 49.9118 194.233H15.9832C14.3319 194.227 12.7501 193.567 11.5848 192.397C10.4196 191.227 9.76594 189.642 9.76732 187.991V155.046C9.76594 153.395 10.4196 151.811 11.5848 150.64C12.7501 149.47 14.3319 148.81 15.9832 148.805H49.9118C51.5666 148.807 53.1531 149.465 54.3232 150.635C55.4933 151.805 56.1516 153.392 56.1537 155.046ZM146.88 155.046V187.991C146.878 189.646 146.22 191.232 145.05 192.402C143.88 193.572 142.293 194.231 140.638 194.233H106.71C105.055 194.231 103.469 193.572 102.298 192.402C101.128 191.232 100.47 189.646 100.468 187.991V155.046C100.47 153.392 101.128 151.805 102.298 150.635C103.469 149.465 105.055 148.807 106.71 148.805H140.638C142.293 148.807 143.88 149.465 145.05 150.635C146.22 151.805 146.878 153.392 146.88 155.046ZM237.584 187.991C237.585 189.642 236.931 191.227 235.766 192.397C234.601 193.567 233.019 194.227 231.368 194.233H197.439C195.784 194.231 194.198 193.572 193.028 192.402C191.858 191.232 191.199 189.646 191.197 187.991V155.046C191.199 153.392 191.858 151.805 193.028 150.635C194.198 149.465 195.784 148.807 197.439 148.805H231.368C234.794 148.805 237.584 151.604 237.584 155.046V187.991Z" fill="black" stroke="black" stroke-width="4"/>
<path d="M84.6434 22.6189H66.8244C65.7941 22.6189 64.8059 23.0282 64.0773 23.7568C63.3488 24.4853 62.9395 25.4735 62.9395 26.5038C62.9395 27.5342 63.3488 28.5224 64.0773 29.2509C64.8059 29.9795 65.7941 30.3888 66.8244 30.3888H84.6434C85.6737 30.3888 86.6619 29.9795 87.3905 29.2509C88.119 28.5224 88.5283 27.5342 88.5283 26.5038C88.5283 25.4735 88.119 24.4853 87.3905 23.7568C86.6619 23.0282 85.6737 22.6189 84.6434 22.6189Z" fill="black" stroke="black" stroke-width="4"/>
</svg>
