<svg width="200" height="200" viewBox="0 0 200 200" fill="none" xmlns="http://www.w3.org/2000/svg">
<path d="M89.7453 51.2821H76.9248V38.4616C76.9248 36.4215 76.1143 34.4649 74.6718 33.0223C73.2292 31.5797 71.2726 30.7693 69.2325 30.7693C67.1923 30.7693 65.2358 31.5797 63.7932 33.0223C62.3506 34.4649 61.5402 36.4215 61.5402 38.4616V51.2821H48.7197C46.6795 51.2821 44.723 52.0925 43.2804 53.5351C41.8378 54.9777 41.0273 56.9343 41.0273 58.9744C41.0273 61.0145 41.8378 62.9711 43.2804 64.4137C44.723 65.8563 46.6795 66.6667 48.7197 66.6667H61.5402V79.4872C61.5402 81.5274 62.3506 83.4839 63.7932 84.9265C65.2358 86.3691 67.1923 87.1795 69.2325 87.1795C71.2726 87.1795 73.2292 86.3691 74.6718 84.9265C76.1143 83.4839 76.9248 81.5274 76.9248 79.4872V66.6667H89.7453C91.7854 66.6667 93.742 65.8563 95.1846 64.4137C96.6272 62.9711 97.4376 61.0145 97.4376 58.9744C97.4376 56.9343 96.6272 54.9777 95.1846 53.5351C93.742 52.0925 91.7854 51.2821 89.7453 51.2821Z" fill="black"/>
<path d="M171.795 71.7949H138.462V28.2051C138.456 20.7263 135.483 13.5554 130.194 8.26709C124.906 2.97878 117.735 0.0054332 110.256 0H28.2051C20.7263 0.0054332 13.5554 2.97878 8.26709 8.26709C2.97878 13.5554 0.0054332 20.7263 0 28.2051V187.179C0 194.246 5.75385 200 12.8205 200H187.179C194.246 200 200 194.246 200 187.179V100C199.995 92.5212 197.021 85.3503 191.733 80.062C186.445 74.7737 179.274 71.8003 171.795 71.7949ZM15.3846 28.2051C15.3846 21.1385 21.1385 15.3846 28.2051 15.3846H110.256C117.323 15.3846 123.077 21.1385 123.077 28.2051V184.615H107.692V130.769C107.692 120.872 99.641 112.821 89.7436 112.821H48.718C38.8205 112.821 30.7692 120.872 30.7692 130.769V184.615H15.3846V28.2051ZM46.1538 184.615V130.769C46.1538 130.089 46.424 129.437 46.9049 128.956C47.3857 128.475 48.0379 128.205 48.718 128.205H89.7436C90.4236 128.205 91.0758 128.475 91.5567 128.956C92.0376 129.437 92.3077 130.089 92.3077 130.769V184.615H46.1538ZM184.615 184.615H138.462V87.1795H171.795C178.862 87.1795 184.615 92.9333 184.615 100V184.615Z" fill="black"/>
<path d="M161.538 143.59C159.498 143.59 157.541 144.4 156.099 145.843C154.656 147.285 153.846 149.242 153.846 151.282V161.538C153.846 163.578 154.656 165.535 156.099 166.978C157.541 168.42 159.498 169.231 161.538 169.231C163.578 169.231 165.535 168.42 166.977 166.978C168.42 165.535 169.23 163.578 169.23 161.538V151.282C169.23 149.242 168.42 147.285 166.977 145.843C165.535 144.4 163.578 143.59 161.538 143.59ZM161.538 102.564C159.498 102.564 157.541 103.374 156.099 104.817C154.656 106.26 153.846 108.216 153.846 110.256V120.513C153.846 122.553 154.656 124.509 156.099 125.952C157.541 127.395 159.498 128.205 161.538 128.205C163.578 128.205 165.535 127.395 166.977 125.952C168.42 124.509 169.23 122.553 169.23 120.513V110.256C169.23 108.216 168.42 106.26 166.977 104.817C165.535 103.374 163.578 102.564 161.538 102.564Z" fill="black"/>
</svg>
