<svg width="200" height="200" viewBox="0 0 200 200" fill="none" xmlns="http://www.w3.org/2000/svg">
<path d="M48.0652 92.0256C55.2345 92.0256 61.0463 86.1862 61.0463 78.9829C61.0463 71.7796 55.2345 65.9402 48.0652 65.9402C40.8959 65.9402 35.084 71.7796 35.084 78.9829C35.084 86.1862 40.8959 92.0256 48.0652 92.0256Z" fill="black"/>
<path d="M176.28 0H53.3424C47.3048 0.00761821 41.5167 2.42129 37.2481 6.71144C32.9796 11.0016 30.5791 16.8178 30.5734 22.8841V30.6967H22.7904C16.7478 30.7025 10.9543 33.1168 6.68145 37.4099C2.40864 41.7029 0.00568721 47.5239 0 53.5952V177.094C0.00757443 183.166 2.41091 188.986 6.6831 193.28C10.9553 197.574 16.7477 199.99 22.7904 200H145.707C151.75 199.99 157.542 197.574 161.814 193.28C166.087 188.986 168.49 183.166 168.498 177.094V169.282H176.28C182.318 169.274 188.106 166.86 192.375 162.57C196.643 158.28 199.044 152.464 199.049 146.398V22.8769C199.044 16.8113 196.643 10.9958 192.374 6.70679C188.106 2.41778 182.317 0.00571415 176.28 0ZM22.7904 43.6459H145.707C151.17 43.6459 155.609 48.1062 155.609 53.5952V139.326L121.735 100.147C120.139 98.3031 118.169 96.8241 115.955 95.8104C113.742 94.7966 111.338 94.2717 108.906 94.271C106.474 94.2703 104.07 94.7939 101.856 95.8064C99.6421 96.8189 97.6703 98.2968 96.0736 100.14L69.6601 130.65L62.6003 122.499C61.0061 120.653 59.0357 119.173 56.8227 118.159C54.6097 117.144 52.2056 116.619 49.7731 116.619C47.3406 116.619 44.9365 117.144 42.7235 118.159C40.5105 119.173 38.5402 120.653 36.9459 122.499L12.8881 150.254V53.5952C12.8881 48.1062 17.3345 43.6459 22.7904 43.6459ZM12.8881 177.094V169.972L46.6549 131.002C47.7218 129.765 49.0607 129.585 49.7624 129.585C50.4641 129.585 51.803 129.765 52.877 131.002L101.415 187.044H22.7904C20.1653 187.04 17.6488 185.99 15.7926 184.125C13.9364 182.26 12.8919 179.732 12.8881 177.094ZM145.707 187.044H118.499L78.2021 140.52L105.797 108.644C106.871 107.406 108.203 107.226 108.912 107.226C109.62 107.226 110.952 107.406 112.026 108.644L155.624 159.066V177.102C155.614 179.739 154.566 182.266 152.707 184.129C150.849 185.992 148.332 187.04 145.707 187.044ZM186.161 146.398C186.161 151.872 181.729 156.325 176.28 156.325H168.498V53.5952C168.49 47.5238 166.087 41.7032 161.814 37.4094C157.542 33.1156 151.75 30.6991 145.707 30.6895H43.4615V22.8769C43.4615 17.4023 47.8936 12.9492 53.3424 12.9492H176.28C181.729 12.9492 186.161 17.4023 186.161 22.8769V146.398Z" fill="black"/>
</svg>
