<svg width="201" height="200" viewBox="0 0 201 200" fill="none" xmlns="http://www.w3.org/2000/svg">
<path d="M192.445 67.0561L112.399 4.15283C108.849 1.45851 104.515 0 100.058 0C95.6017 0 91.2676 1.45851 87.7178 4.15283L7.67125 67.0561C5.27367 68.9185 3.33534 71.3062 2.00543 74.0354C0.675523 76.7646 -0.0105111 79.7626 0.000121735 82.7985V179.988C0.0156081 185.291 2.12894 190.372 5.8785 194.122C9.62806 197.871 14.7091 199.985 20.0118 200H60.035C65.3377 199.985 70.4187 197.871 74.1683 194.122C77.9178 190.372 80.0312 185.291 80.0467 179.988V146.636C80.0518 144.868 80.7562 143.174 82.006 141.925C83.2559 140.675 84.9496 139.97 86.7172 139.965H113.399C115.167 139.97 116.861 140.675 118.111 141.925C119.36 143.174 120.065 144.868 120.07 146.636V179.988C120.085 185.291 122.199 190.372 125.948 194.122C129.698 197.871 134.779 199.985 140.082 200H180.105C185.407 199.985 190.489 197.871 194.238 194.122C197.988 190.372 200.101 185.291 200.116 179.988V82.7985C200.127 79.7626 199.441 76.7646 198.111 74.0354C196.781 71.3062 194.843 68.9185 192.445 67.0561ZM186.775 179.988C186.77 181.756 186.066 183.45 184.816 184.7C183.566 185.949 181.872 186.654 180.105 186.659H140.082C138.314 186.654 136.62 185.949 135.37 184.7C134.121 183.45 133.416 181.756 133.411 179.988V146.636C133.396 141.333 131.282 136.252 127.533 132.502C123.783 128.753 118.702 126.64 113.399 126.624H86.7172C81.4145 126.64 76.3335 128.753 72.5839 132.502C68.8344 136.252 66.721 141.333 66.7056 146.636V179.988C66.7005 181.756 65.996 183.45 64.7462 184.7C63.4963 185.949 61.8026 186.654 60.035 186.659H20.0118C18.2442 186.654 16.5505 185.949 15.3006 184.7C14.0507 183.45 13.3463 181.756 13.3412 179.988V82.7985C13.3383 81.7858 13.5648 80.7855 14.0038 79.8728C14.4428 78.9601 15.0829 78.1587 15.876 77.5288L95.9225 14.6256C97.1097 13.7168 98.5632 13.2244 100.058 13.2244C101.553 13.2244 103.007 13.7168 104.194 14.6256L184.241 77.5288C185.034 78.1587 185.674 78.9601 186.113 79.8728C186.552 80.7855 186.778 81.7858 186.775 82.7985V179.988Z" fill="black"/>
</svg>
