<svg width="190" height="190" viewBox="0 0 190 190" fill="none" xmlns="http://www.w3.org/2000/svg">
<path d="M170.042 189.917H19.875C18.1179 189.917 16.4328 189.219 15.1904 187.976C13.948 186.734 13.25 185.049 13.25 183.292V33.125C13.25 31.3679 13.948 29.6828 15.1904 28.4404C16.4328 27.198 18.1179 26.5 19.875 26.5C21.6321 26.5 23.3172 27.198 24.5596 28.4404C25.802 29.6828 26.5 31.3679 26.5 33.125V176.667H163.417V33.125C163.417 31.3679 164.115 29.6828 165.357 28.4404C166.6 27.198 168.285 26.5 170.042 26.5C171.799 26.5 173.484 27.198 174.726 28.4404C175.969 29.6828 176.667 31.3679 176.667 33.125V183.292C176.667 185.049 175.969 186.734 174.726 187.976C173.484 189.219 171.799 189.917 170.042 189.917Z" fill="black"/>
<path d="M178.875 39.75H170.042C168.285 39.75 166.6 39.052 165.357 37.8096C164.115 36.5672 163.417 34.8821 163.417 33.125C163.417 31.3679 164.115 29.6828 165.357 28.4404C166.6 27.198 168.285 26.5 170.042 26.5H176.667V13.25H13.25V26.5H139.125C140.882 26.5 142.567 27.198 143.81 28.4404C145.052 29.6828 145.75 31.3679 145.75 33.125C145.75 34.8821 145.052 36.5672 143.81 37.8096C142.567 39.052 140.882 39.75 139.125 39.75H11.0417C8.11395 39.7477 5.30682 38.5836 3.23661 36.5134C1.16641 34.4432 0.00233937 31.636 0 28.7083V11.0417C0.00233937 8.11395 1.16641 5.30682 3.23661 3.23661C5.30682 1.16641 8.11395 0.00233937 11.0417 0H178.875C181.803 0.00233937 184.61 1.16641 186.68 3.23661C188.75 5.30682 189.914 8.11395 189.917 11.0417V28.7083C189.914 31.636 188.75 34.4432 186.68 36.5134C184.61 38.5836 181.803 39.7477 178.875 39.75Z" fill="black"/>
<path d="M119.293 51.5868L114.135 63.6001C113.955 64.0257 113.654 64.3891 113.269 64.6451C112.884 64.9011 112.433 65.0384 111.971 65.0399H101.742C101.254 65.0407 100.778 65.1927 100.38 65.475C99.9825 65.7573 99.682 66.156 99.5202 66.6162C99.3584 67.0764 99.3433 67.5754 99.477 68.0446C99.6106 68.5137 99.8864 68.9299 100.266 69.2358L109.188 76.3908C109.555 76.6826 109.826 77.0771 109.968 77.5239C110.11 77.9707 110.115 78.4496 109.983 78.8994L105.884 92.5469C105.743 93.0224 105.754 93.5306 105.918 93.9991C106.081 94.4676 106.389 94.8725 106.796 95.1563C107.203 95.4401 107.689 95.5882 108.185 95.5797C108.681 95.5711 109.162 95.4063 109.559 95.1086L120.044 87.2469C120.452 86.9416 120.948 86.7766 121.458 86.7766C121.967 86.7766 122.463 86.9416 122.871 87.2469L133.356 95.1086C133.753 95.4063 134.234 95.5711 134.73 95.5797C135.226 95.5882 135.712 95.4401 136.12 95.1563C136.527 94.8725 136.834 94.4676 136.997 93.9991C137.161 93.5306 137.173 93.0224 137.031 92.5469L132.932 78.8994C132.798 78.4484 132.803 77.9676 132.944 77.519C133.086 77.0704 133.359 76.6744 133.727 76.3819L142.649 69.2358C143.029 68.9299 143.305 68.5137 143.438 68.0446C143.572 67.5754 143.557 67.0764 143.395 66.6162C143.233 66.156 142.933 65.7573 142.535 65.475C142.137 65.1927 141.661 65.0407 141.174 65.0399H130.945C130.483 65.0391 130.033 64.9031 129.648 64.6488C129.263 64.3944 128.962 64.0329 128.78 63.6089L123.622 51.5868C123.439 51.1647 123.137 50.8053 122.752 50.5528C122.368 50.3003 121.918 50.1658 121.458 50.1658C120.998 50.1658 120.548 50.3003 120.163 50.5528C119.779 50.8053 119.476 51.1647 119.293 51.5868ZM66.2935 51.5868L61.126 63.6001C60.946 64.0257 60.6449 64.3891 60.2601 64.6451C59.8754 64.9011 59.4239 65.0384 58.9618 65.0399H48.7416C48.2538 65.0407 47.7782 65.1927 47.3804 65.475C46.9825 65.7573 46.682 66.156 46.5202 66.6162C46.3584 67.0764 46.3433 67.5754 46.477 68.0446C46.6106 68.5137 46.8864 68.9299 47.2665 69.2358L56.1881 76.3908C56.5549 76.6826 56.8265 77.0771 56.9681 77.5239C57.1097 77.9707 57.1149 78.4496 56.9831 78.8994L52.8845 92.5469C52.7425 93.0224 52.7542 93.5306 52.9178 93.9991C53.0814 94.4676 53.3886 94.8725 53.7957 95.1563C54.2028 95.4401 54.689 95.5882 55.1851 95.5797C55.6813 95.5711 56.1621 95.4063 56.5591 95.1086L67.0443 87.2469C67.4522 86.9416 67.9481 86.7766 68.4576 86.7766C68.9672 86.7766 69.463 86.9416 69.871 87.2469L80.3561 95.1086C80.7532 95.4063 81.234 95.5711 81.7301 95.5797C82.2263 95.5882 82.7125 95.4401 83.1196 95.1563C83.5267 94.8725 83.8339 94.4676 83.9975 93.9991C84.1611 93.5306 84.1727 93.0224 84.0308 92.5469L79.9321 78.8994C79.7984 78.4484 79.8027 77.9676 79.9444 77.519C80.0861 77.0704 80.3586 76.6744 80.7271 76.3819L89.6488 69.2358C90.0288 68.9299 90.3047 68.5137 90.4383 68.0446C90.5719 67.5754 90.5568 67.0764 90.395 66.6162C90.2332 66.156 89.9327 65.7573 89.5349 65.475C89.137 65.1927 88.6615 65.0407 88.1736 65.0399H77.9446C77.4835 65.0391 77.0327 64.9031 76.6481 64.6488C76.2634 64.3944 75.9618 64.0329 75.7805 63.6089L70.6218 51.5868C70.4389 51.1647 70.1366 50.8053 69.7521 50.5528C69.3676 50.3003 68.9176 50.1658 68.4576 50.1658C67.9976 50.1658 67.5477 50.3003 67.1631 50.5528C66.7786 50.8053 66.4763 51.1647 66.2935 51.5868Z" fill="black"/>
<path d="M134.709 189.917H55.209C53.4519 189.917 51.7668 189.219 50.5244 187.976C49.282 186.734 48.584 185.049 48.584 183.292V121.458C48.584 119.701 49.282 118.016 50.5244 116.774C51.7668 115.531 53.4519 114.833 55.209 114.833H134.709C136.466 114.833 138.151 115.531 139.394 116.774C140.636 118.016 141.334 119.701 141.334 121.458V183.292C141.334 185.049 140.636 186.734 139.394 187.976C138.151 189.219 136.466 189.917 134.709 189.917ZM61.834 176.667H128.084V128.083H61.834V176.667Z" fill="black"/>
<path d="M143.542 128.083H46.375C44.6179 128.083 42.9328 127.385 41.6904 126.143C40.448 124.9 39.75 123.215 39.75 121.458C39.75 119.701 40.448 118.016 41.6904 116.774C42.9328 115.531 44.6179 114.833 46.375 114.833H143.542C145.299 114.833 146.984 115.531 148.226 116.774C149.469 118.016 150.167 119.701 150.167 121.458C150.167 123.215 149.469 124.9 148.226 126.143C146.984 127.385 145.299 128.083 143.542 128.083Z" fill="black"/>
<path d="M94.959 189.917C93.2019 189.917 91.5168 189.219 90.2744 187.976C89.032 186.734 88.334 185.049 88.334 183.292V121.458C88.334 119.701 89.032 118.016 90.2744 116.774C91.5168 115.531 93.2019 114.833 94.959 114.833C96.716 114.833 98.4011 115.531 99.6436 116.774C100.886 118.016 101.584 119.701 101.584 121.458V183.292C101.584 185.049 100.886 186.734 99.6436 187.976C98.4011 189.219 96.716 189.917 94.959 189.917Z" fill="black"/>
</svg>
