<svg clip-rule="evenodd" fill-rule="evenodd" height="512" image-rendering="optimizeQuality" shape-rendering="geometricPrecision" text-rendering="geometricPrecision" viewBox="0 0 1706.66 1706.66" width="512" xmlns="http://www.w3.org/2000/svg" xmlns:xodm="http://www.corel.com/coreldraw/odm/2003"><g id="Layer_x0020_1"><path d="m1508.96 1706.51h-1359.92c-56.21 0-101.96-45.73-101.96-101.94v-1502.49c0-56.21 45.73-101.94 101.96-101.94h1147.33c56.23 0 101.97 45.73 101.97 101.94v389.3c0 26.32-39.99 26.32-39.99 0v-389.3c0-34.16-27.78-61.95-61.96-61.95h-1147.35c-34.17 0-61.96 27.79-61.96 61.95v1502.49c0 34.15 27.78 61.93 61.96 61.93h1359.92c26.33 0 26.31 40 0 40z"/><path d="m1508.96 1706.52c-83.04 0-150.63-67.57-150.63-150.63l-.01-1064.53c0-11.04 8.97-20 20-20h179.3c56.21 0 101.96 45.73 101.96 101.94v982.58c.01 83.06-67.57 150.63-150.61 150.63zm-110.62-1195.16v1044.54c0 61 49.62 110.62 110.62 110.62s110.62-49.62 110.62-110.62l-.01-982.59c0-34.16-27.78-61.95-61.94-61.95z"/><path d="m222.4 611.06c-11.04 0-20-8.96-20-20v-305.37c0-20.41 27.21-27.62 37.34-9.94l131.1 228.78v-217.22c0-26.33 39.99-26.33 39.99 0v292.31c0 20.39-27.19 27.65-37.34 9.94l-131.1-228.78v230.26c0 11.05-8.96 20.01-20 20.01z"/><path d="m784.14 600.19c-9.77 0-18.12-7.08-19.73-16.71l-48.48-290.31c-4.35-26.03 35.11-32.52 39.45-6.59l34.31 205.46 58.36-194.57c5.67-18.91 32.63-18.91 38.3 0l58.36 194.57 34.33-205.48c4.33-25.95 43.78-19.38 39.44 6.6l-48.48 290.31c-3.48 20.85-32.84 22.52-38.87 2.46l-63.93-213.09-63.92 213.11c-2.56 8.5-10.37 14.24-19.15 14.24z"/><path d="m1143.1 617.91c-74.18 0-105.37-94.76-67.39-101.04 37.56-6.2 10.04 61.38 68.09 61.03 58.59-.36 63.06-107.38 1.29-116.46-110.11-16.19-101.46-196.03 7.78-196.03 74.05 0 105.45 94.64 67.41 101.04-37.39 6.3-10.32-61.43-67.83-61.04-59.07.4-63.2 107.41-1.53 116.47 110.07 16.18 101.5 196.04-7.81 196.04z"/><path d="m650.91 596.09h-149.47c-11.04 0-20-8.96-20-20v-275.43c0-11.04 8.96-20 20-20h138.53c26.33 0 26.33 40 0 40h-118.53v235.43l129.47.01c26.32 0 26.33 39.99 0 39.99z"/><path d="m633.97 453.56h-132.53c-26.32 0-26.32-39.99 0-39.99h132.52c26.32 0 26.33 39.99.01 39.99z"/><path d="m1208.33 1290.46h-820.79c-26.32 0-26.32-39.99 0-39.99h820.79c26.32 0 26.33 39.99 0 39.99z"/><path d="m1208.33 1457.11h-883.95c-26.32 0-26.32-40 0-40h883.97c26.33 0 26.32 40-.02 40z"/><path d="m1208.33 957.19h-563.28c-26.32 0-26.32-39.99 0-39.99h563.28c26.32 0 26.33 39.99 0 39.99z"/><path d="m1208.33 1123.83h-563.28c-26.32 0-26.32-40 0-40h563.28c26.32 0 26.33 40 0 40z"/><path d="m1208.33 790.55h-563.28c-26.33 0-26.33-40 0-40h563.28c26.32 0 26.33 40 0 40z"/><path d="m493.17 1144.66h-262.14c-11.04 0-20-8.97-20-20v-374.94c0-11.04 8.96-20 20-20h262.15c11.04 0 20 8.96 20 20v374.94c-.01 11.03-8.95 20-20.01 20zm-242.15-40.01h222.16v-334.93h-222.16z"/></g></svg>