<svg width="204" height="205" viewBox="0 0 204 205" fill="none" xmlns="http://www.w3.org/2000/svg">
<path d="M23.8527 43.7424H16.7401C10.2561 43.7424 5 48.9985 5 55.4826V161.144C5 167.628 10.2561 172.884 16.7401 172.884H100.095L171.71 197.929V172.884H186.581C193.065 172.884 198.321 167.628 198.321 161.144V55.4826C198.321 48.9985 193.065 43.7424 186.581 43.7424H105.897M180.71 55.4826H186.581M168.97 55.4826H174.84M20.2622 105.182H182.276M20.2622 120.836H182.276M20.2622 136.489H182.276M20.2622 152.143H119.662" stroke="black" stroke-width="10" stroke-miterlimit="10"/>
<path d="M74.623 63.9276C81.8863 66.0682 88.1477 70.5373 92.5463 76.47" stroke="black" stroke-width="10" stroke-miterlimit="10"/>
<path d="M64.8756 87.1808C87.5692 87.1808 105.966 68.784 105.966 46.0904C105.966 23.3968 87.5692 5 64.8756 5C42.182 5 23.7852 23.3968 23.7852 46.0904C23.7852 68.784 42.182 87.1808 64.8756 87.1808Z" stroke="black" stroke-width="10" stroke-miterlimit="10"/>
<path d="M37.2031 76.47C41.6018 70.5373 47.8632 66.0682 55.1264 63.9276" stroke="black" stroke-width="10" stroke-miterlimit="10"/>
<path d="M78.5707 42.9597V54.3085C78.5707 61.873 72.4384 68.0053 64.8739 68.0053C57.3093 68.0053 51.177 61.873 51.177 54.3085V42.9597M78.5707 42.9597H51.177M78.5707 42.9597V35.9156C78.5707 31.5929 75.0666 28.0889 70.7439 28.0889H47.2637L51.177 42.9597" stroke="black" stroke-width="10" stroke-miterlimit="10"/>
</svg>
